<!-- Generated by IcoMoon.io -->
<svg version="1.1" xmlns="http://www.w3.org/2000/svg" width="32" height="32" viewBox="0 0 32 32">
<title>stack-overflow</title>
<path d="M22.165 18.86c0.721 0 1.433 0 2.142 0 0 4.38 0 8.759 0 13.14-6.961 0-13.909 0-20.863 0 0-4.382 0-8.756 0-13.14 0.71 0 1.421 0 2.141 0 0 3.668 0 7.333 0 11.011 5.526 0 11.043 0 16.578 0 0.002-3.674 0.002-7.337 0.002-11.011zM16.063 4.155c2.376 3.484 4.746 6.959 7.119 10.438 0.75-0.513 1.488-1.016 2.23-1.521-2.38-3.488-4.748-6.96-7.119-10.438-0.746 0.508-1.482 1.010-2.23 1.521zM22.745 14.961c-3.636-2.144-7.255-4.279-10.882-6.418-0.461 0.781-0.914 1.547-1.373 2.325 3.627 2.139 7.249 4.274 10.884 6.418 0.461-0.782 0.915-1.551 1.371-2.325zM26.393 0c-0.891 0.155-1.764 0.308-2.66 0.462 0.721 4.156 1.443 8.296 2.162 12.447 0.898-0.155 1.775-0.309 2.66-0.462-0.721-4.161-1.441-8.302-2.163-12.447zM21.151 18.049c-4.074-1.097-8.132-2.187-12.201-3.281-0.235 0.87-0.466 1.732-0.702 2.607 4.073 1.096 8.135 2.186 12.202 3.28 0.237-0.876 0.468-1.738 0.701-2.606zM20.007 25.038c-4.21 0-8.409 0-12.613 0 0 0.904 0 1.794 0 2.684 4.211 0 8.41 0 12.613 0 0-0.903 0-1.795 0-2.684zM20.323 21.569c-4.2-0.386-8.386-0.774-12.581-1.158-0.084 0.902-0.167 1.79-0.25 2.688 4.2 0.386 8.387 0.772 12.582 1.158 0.084-0.903 0.165-1.791 0.249-2.688z"></path>
</svg>
