<?xml version="1.0" standalone="no"?>
<!DOCTYPE svg PUBLIC "-//W3C//DTD SVG 20010904//EN"
 "http://www.w3.org/TR/2001/REC-SVG-20010904/DTD/svg10.dtd">
<svg version="1.0" xmlns="http://www.w3.org/2000/svg"
 width="800.000000pt" height="800.000000pt" viewBox="0 0 800.000000 800.000000"
 preserveAspectRatio="xMidYMid meet">
<metadata>
Created by potrace 1.11, written by Peter Selinger 2001-2013
</metadata>
<g transform="translate(0.000000,800.000000) scale(0.100000,-0.100000)"
fill="#000000" stroke="none">
<path d="M3710 7989 c-1449 -115 -2697 -969 -3318 -2269 -195 -409 -310 -811
-369 -1290 -24 -202 -24 -657 0 -860 45 -370 128 -707 254 -1030 517 -1318
1701 -2269 3098 -2489 233 -36 365 -46 625 -46 511 0 959 82 1430 262 963 368
1738 1087 2184 2025 602 1266 491 2767 -292 3933 -481 716 -1156 1242 -1975
1539 -503 183 -1114 266 -1637 225z m725 -294 c894 -101 1744 -535 2340 -1194
760 -839 1099 -1926 949 -3041 -81 -608 -338 -1237 -706 -1728 -349 -465 -795
-843 -1294 -1097 -946 -481 -2021 -546 -3014 -182 -982 359 -1780 1134 -2175
2112 -668 1654 -82 3544 1405 4530 281 186 528 308 850 419 318 111 577 162
1000 200 95 8 512 -4 645 -19z"/>
<path d="M3738 7509 c-775 -55 -1554 -395 -2128 -927 -646 -599 -1022 -1344
-1132 -2242 -17 -138 -17 -602 0 -740 98 -792 410 -1483 915 -2025 604 -649
1347 -1027 2227 -1132 198 -24 582 -24 780 0 694 83 1295 333 1840 765 134
107 459 435 564 572 914 1184 1007 2761 238 4035 -146 242 -296 430 -526 661
-195 195 -330 307 -526 438 -670 448 -1447 653 -2252 595z m1102 -1684 c273
-46 578 -159 680 -251 109 -99 128 -278 45 -419 -68 -117 -150 -168 -269 -168
-62 0 -88 7 -211 55 -259 102 -384 124 -656 115 -105 -3 -212 -12 -249 -21
-372 -85 -638 -272 -813 -570 -139 -239 -202 -550 -178 -880 18 -249 56 -407
140 -581 87 -180 214 -326 387 -441 200 -133 427 -200 719 -211 244 -9 441 25
633 111 130 57 193 71 268 57 72 -14 127 -46 188 -110 73 -80 91 -127 91 -246
0 -116 -15 -155 -87 -221 -104 -96 -445 -218 -743 -265 -115 -19 -450 -15
-610 6 -789 103 -1393 584 -1625 1294 -37 112 -66 240 -92 406 -17 110 -17
534 0 650 34 225 104 454 197 638 306 605 873 986 1590 1067 120 13 483 4 595
-15z"/>
</g>
</svg>
