<svg aria-hidden="true" style="position: absolute; width: 0; height: 0; overflow: hidden;" version="1.1" xmlns="http://www.w3.org/2000/svg" xmlns:xlink="http://www.w3.org/1999/xlink">
<defs>
<symbol id="dev-github-logo" viewBox="0 0 32 32">
<title>github-logo</title>
<path d="M29.854 8.36c-1.431-2.451-3.371-4.392-5.823-5.823s-5.128-2.146-8.031-2.146c-2.903 0-5.58 0.715-8.031 2.146s-4.392 3.371-5.823 5.823c-1.431 2.451-2.146 5.128-2.146 8.031 0 3.486 1.017 6.621 3.052 9.406s4.663 4.712 7.885 5.781c0.375 0.070 0.653 0.021 0.833-0.146s0.271-0.375 0.271-0.625c0-0.042-0.004-0.416-0.011-1.125s-0.011-1.326-0.011-1.854l-0.479 0.083c-0.306 0.056-0.691 0.080-1.156 0.073s-0.948-0.055-1.448-0.146c-0.5-0.090-0.965-0.298-1.396-0.625s-0.736-0.754-0.916-1.281l-0.208-0.479c-0.139-0.319-0.357-0.674-0.656-1.062s-0.601-0.653-0.906-0.792l-0.146-0.104c-0.097-0.069-0.187-0.153-0.271-0.25s-0.146-0.194-0.187-0.292c-0.042-0.097-0.007-0.177 0.104-0.24s0.312-0.093 0.604-0.093l0.417 0.062c0.278 0.056 0.621 0.222 1.031 0.5s0.746 0.639 1.010 1.083c0.32 0.57 0.705 1.004 1.156 1.302s0.906 0.448 1.364 0.448 0.854-0.035 1.187-0.104c0.333-0.069 0.646-0.174 0.937-0.313 0.125-0.931 0.465-1.646 1.021-2.146-0.792-0.083-1.503-0.208-2.135-0.375s-1.285-0.438-1.958-0.813c-0.674-0.375-1.233-0.84-1.677-1.396s-0.809-1.285-1.094-2.188c-0.285-0.903-0.427-1.944-0.427-3.125 0-1.681 0.549-3.111 1.646-4.292-0.514-1.264-0.465-2.68 0.146-4.25 0.403-0.125 1-0.031 1.792 0.281s1.371 0.58 1.74 0.802c0.368 0.222 0.663 0.41 0.885 0.562 1.292-0.361 2.625-0.541 4-0.541s2.708 0.181 4 0.541l0.792-0.5c0.541-0.333 1.181-0.639 1.916-0.917s1.299-0.354 1.688-0.229c0.625 1.569 0.68 2.986 0.166 4.25 1.097 1.181 1.646 2.611 1.646 4.292 0 1.18-0.143 2.225-0.427 3.135s-0.652 1.639-1.104 2.188c-0.452 0.549-1.014 1.011-1.688 1.385s-1.327 0.646-1.958 0.813c-0.632 0.167-1.344 0.292-2.135 0.375 0.722 0.625 1.083 1.611 1.083 2.958v4.395c0 0.25 0.087 0.458 0.261 0.625s0.448 0.215 0.823 0.146c3.222-1.069 5.851-2.996 7.886-5.781s3.052-5.92 3.052-9.406c-0.001-2.902-0.716-5.579-2.146-8.030z"></path>
</symbol>
<symbol id="dev-d-outlined-shape" viewBox="0 0 32 32">
<title>d-outlined-shape</title>
<path d="M17.057 0.419c-0.863-0.571-1.989-0.558-2.839 0.034l-12.717 8.858c-0.678 0.473-1.082 1.246-1.082 2.074v9.544c0 0.849 0.425 1.64 1.134 2.108l12.925 8.544c0.845 0.559 1.942 0.559 2.787 0l13.182-8.709c0.707-0.468 1.134-1.259 1.134-2.108v-9.377c0-0.848-0.425-1.639-1.133-2.107l-13.391-8.861zM26.903 10.758l-4.872 3.271-4.569-3.323-0.029-6.535 9.47 6.587zM14.127 4.177v6.396l-4.682 3.274-4.67-3.132 9.352-6.538zM3.495 13.867l3.023 2.025-3.023 2.115v-4.14zM14.207 27.503l-9.43-6.324 4.71-3.292 4.719 3.166v6.451zM12.416 15.84l3.053-2.135 3.556 2.337-3.152 2.117-3.457-2.319zM17.538 27.503v-6.453l4.51-3.023 4.856 3.192-9.366 6.283zM28.25 18.117l-3.202-2.104 3.202-2.147v4.251z"></path>
</symbol>
<symbol id="dev-stack-overflow" viewBox="0 0 32 32">
<title>stack-overflow</title>
<path d="M22.165 18.86c0.721 0 1.433 0 2.142 0 0 4.38 0 8.759 0 13.14-6.961 0-13.909 0-20.863 0 0-4.382 0-8.756 0-13.14 0.71 0 1.421 0 2.141 0 0 3.668 0 7.333 0 11.011 5.526 0 11.043 0 16.578 0 0.002-3.674 0.002-7.337 0.002-11.011zM16.063 4.155c2.376 3.484 4.746 6.959 7.119 10.438 0.75-0.513 1.488-1.016 2.23-1.521-2.38-3.488-4.748-6.96-7.119-10.438-0.746 0.508-1.482 1.010-2.23 1.521zM22.745 14.961c-3.636-2.144-7.255-4.279-10.882-6.418-0.461 0.781-0.914 1.547-1.373 2.325 3.627 2.139 7.249 4.274 10.884 6.418 0.461-0.782 0.915-1.551 1.371-2.325zM26.393 0c-0.891 0.155-1.764 0.308-2.66 0.462 0.721 4.156 1.443 8.296 2.162 12.447 0.898-0.155 1.775-0.309 2.66-0.462-0.721-4.161-1.441-8.302-2.163-12.447zM21.151 18.049c-4.074-1.097-8.132-2.187-12.201-3.281-0.235 0.87-0.466 1.732-0.702 2.607 4.073 1.096 8.135 2.186 12.202 3.28 0.237-0.876 0.468-1.738 0.701-2.606zM20.007 25.038c-4.21 0-8.409 0-12.613 0 0 0.904 0 1.794 0 2.684 4.211 0 8.41 0 12.613 0 0-0.903 0-1.795 0-2.684zM20.323 21.569c-4.2-0.386-8.386-0.774-12.581-1.158-0.084 0.902-0.167 1.79-0.25 2.688 4.2 0.386 8.387 0.772 12.582 1.158 0.084-0.903 0.165-1.791 0.249-2.688z"></path>
</symbol>
</defs>
</svg>
